<svg width="10" height="10" viewBox="0 0 10 10" fill="none" xmlns="http://www.w3.org/2000/svg">
<path d="M0.337951 0.337951C0.788553 -0.11265 1.51914 -0.11265 1.9697 0.337951L5.00002 3.36832L8.03034 0.337982C8.48096 -0.11262 9.21142 -0.11262 9.66204 0.337982C10.1127 0.788584 10.1127 1.51917 9.66204 1.96985L6.63187 5.00002L9.66204 8.03018C10.1127 8.4808 10.1127 9.21142 9.66204 9.66204C9.21142 10.1127 8.4808 10.1127 8.03018 9.66204L5.00002 6.63187L1.96985 9.66204C1.51917 10.1127 0.788584 10.1127 0.337982 9.66204C-0.11262 9.21142 -0.11262 8.48096 0.337982 8.03034L3.36832 5.00002L0.337951 1.9697C-0.11265 1.51914 -0.11265 0.788553 0.337951 0.337951Z" fill="#333343"/>
</svg>
