<svg width="52" height="52" viewBox="0 0 52 52" fill="none" xmlns="http://www.w3.org/2000/svg">
<path d="M36.4 19.7299C35.0245 21.1386 33.6747 22.5181 32.2263 24C30.9558 22.7817 29.5696 21.4048 28.1383 20.0888C23.0134 15.3793 17.6677 11.0506 11.5422 8.15998C10.1045 7.48126 8.56405 7.05401 7.0407 6.65117C5.90515 6.35087 5.43593 6.92461 5.96514 8.10138C7.17996 10.7967 8.53191 13.4188 9.92456 16.0043C10.5695 17.203 11.4393 18.2431 12.2107 19.3637C10.8137 20.8676 9.47677 22.3105 7.97485 23.9268C6.47292 21.6123 4.77817 19.2587 3.34695 16.7099C2.24139 14.7421 1.4358 12.5472 0.559494 10.4183C0.291676 9.76888 0.173836 9.01936 0.0859913 8.29914C-0.5632 2.94996 2.52421 -0.55106 7.29137 0.0715055C10.938 0.547585 14.2439 2.14184 17.4492 4.0486C24.2603 8.10138 30.3516 13.3138 36.0272 19.1855C36.1043 19.2661 36.1579 19.3735 36.4 19.7299Z" fill="#35EC6F"/>
<path d="M15.6001 32.3195C16.8217 30.9083 17.9961 29.4946 19.2498 28.1789C19.4041 28.0171 20.0814 28.2573 20.3492 28.5268C24.2969 32.4959 28.4331 36.1833 32.9079 39.3464C36.3412 41.7744 39.8494 44.053 43.8356 45.1065C44.5321 45.2903 45.2908 45.1702 46.0195 45.1898C45.8909 44.3372 45.8973 43.416 45.608 42.6417C44.3543 39.2655 42.4619 36.3401 40.3831 33.5838C39.7701 32.7703 39.7937 32.3024 40.4902 31.6139C41.6154 30.5015 42.6526 29.2765 43.8163 28C47.1553 32.5841 50.5221 37.1388 51.7737 43.1415C52.541 46.8265 51.3172 49.9773 48.7198 51.3052C47.0546 52.1554 45.3015 52.1138 43.5613 51.7708C39.1594 50.8985 35.2675 48.5734 31.4677 46.0375C25.9578 42.36 20.9386 37.918 16.1852 33.0717C16.003 32.8855 15.8573 32.6552 15.6001 32.3244V32.3195Z" fill="#35EC6F"/>
<path d="M27.8326 8.42598C33.1916 4.67341 38.3715 1.00417 44.6172 0.0825753C48.1575 -0.441951 51.1132 1.57037 51.8186 5.03862C52.2544 7.17839 51.8532 9.26179 51.1671 11.2692C49.918 14.9237 47.9828 18.1101 45.862 21.1641C42.1729 26.4731 37.9163 31.1473 33.4031 35.5396C32.8486 36.0788 32.415 36.1769 31.8023 35.6597C30.5164 34.5714 29.1832 33.5518 27.7334 32.3949C28.2555 31.8679 28.6352 31.4635 29.0343 31.0836C34.1495 26.2256 38.9519 21.0097 42.7921 14.7791C43.9959 12.8256 44.9624 10.6564 45.8513 8.48726C46.5201 6.8573 46.0972 6.3965 44.5547 6.72004C40.9259 7.48232 37.733 9.43336 34.568 11.4579C32.2834 12.9188 33.1571 12.9457 31.1119 11.2202C30.0785 10.3476 29.0494 9.46768 27.8305 8.43088L27.8326 8.42598Z" fill="#35EC6F"/>
<path d="M24.2645 19.5941C22.8747 20.9623 21.6464 22.1386 20.4483 23.3567C15.6883 28.1972 11.23 33.355 7.84267 39.5785C7.11003 40.9246 6.54762 42.406 6.03262 43.8825C5.58442 45.1695 5.88825 45.5509 7.08633 45.3934C9.73459 45.044 12.1114 43.7767 14.4515 42.433C15.8607 41.6234 17.1967 40.6539 18.6017 39.8344C18.899 39.6621 19.4507 39.6572 19.7071 39.8639C21.1379 41.0254 22.5148 42.2731 23.9284 43.5084C23.8831 43.6192 23.868 43.7693 23.7948 43.8209C19.3084 47.18 14.6842 50.2462 9.39198 51.6242C7.98273 51.9909 6.45281 52.0942 5.0177 51.9121C1.35667 51.4421 -0.655923 47.7189 0.193074 43.2697C1.00975 38.9903 3.07406 35.4369 5.33877 32.0336C9.24761 26.167 13.8287 21.0312 18.7676 16.304C19.0046 16.0776 19.5498 15.9053 19.7566 16.0579C21.2262 17.1382 22.6462 18.3071 24.2667 19.5941H24.2645Z" fill="#35EC6F"/>
</svg>
