<svg width="58" height="56" viewBox="0 0 58 56" fill="none" xmlns="http://www.w3.org/2000/svg">
<path d="M48.9622 16.7438C50.0659 17.3781 51.0829 17.9076 52.0538 18.5298C55.2729 20.5911 57.1062 23.6665 57.1062 27.7919C57.1062 31.8426 55.3434 34.921 52.1894 36.9882C51.186 37.6464 50.1283 38.2028 49.1113 38.7952C49.3093 40.2102 49.6429 41.5654 49.6591 42.9266C49.7025 46.9444 48.0618 50.0228 44.9756 52.096C43.3999 53.155 41.7348 54.0645 40.0669 54.932C36.9807 56.5385 33.5094 55.2551 31.931 52.0002C30.3608 48.7603 31.3479 44.8233 34.304 42.9356C37.1488 41.1197 40.0561 39.4144 43.0663 37.5835C42.7273 37.3472 42.467 37.1198 42.1714 36.9703C37.957 34.8133 33.7426 32.6593 29.5146 30.5353C29.0997 30.3258 28.5004 30.0985 28.1478 30.275C23.4263 32.6204 18.7346 35.0347 13.731 37.5865C14.7317 38.1789 15.491 38.6276 16.2531 39.0764C18.363 40.3209 20.4865 41.5325 22.5774 42.8129C25.6962 44.7246 26.7918 48.6795 25.1782 52.0391C23.608 55.309 20.02 56.5445 16.8986 54.8602C15.5209 54.1153 14.1622 53.3285 12.8089 52.5327C8.32874 49.9001 6.47104 45.0088 7.91381 39.6717C7.97618 39.4414 8.02771 39.211 8.10364 38.9058C7.08123 38.2956 6.08865 37.7182 5.11234 37.1139C1.85798 35.0915 0.0436731 32.0012 0.000281608 27.8966C-0.0431099 23.7772 1.7495 20.6629 4.97403 18.5957C5.98017 17.9524 7.04869 17.4319 8.16059 16.8186C7.42836 14.4463 7.14089 12.1128 7.77007 9.73144C8.39925 7.3501 9.54641 5.31579 11.4611 4.01742C13.4164 2.69512 15.4422 1.44163 17.5576 0.484305C20.6926 -0.936721 24.3348 0.89715 25.6826 4.31659C27.0739 7.8527 25.8074 11.8286 22.6479 13.6116C20.2804 14.9489 17.8613 16.1814 15.4694 17.4618C15.0788 17.6712 14.6964 17.9016 14.1324 18.2247C18.9081 20.6629 23.4778 23.0113 28.0692 25.3149C28.3756 25.4674 28.8692 25.4106 29.1919 25.249C33.748 22.9604 38.2879 20.6359 42.8304 18.3114C42.8982 18.2755 42.9362 18.1649 43.0799 17.9495C40.3083 16.3818 37.5502 14.8561 34.822 13.2646C30.9357 10.9969 30.133 5.49529 33.1677 2.14167C35.0687 0.0415431 37.8973 -0.487976 40.4222 0.846292C41.7646 1.55531 43.0718 2.34809 44.3871 3.11694C48.7561 5.67479 50.6327 10.6588 49.2008 15.8912C49.1357 16.1246 49.0706 16.3579 48.9649 16.7378L48.9622 16.7438ZM32.9426 27.8069C36.9237 29.8412 40.9402 31.2533 44.2515 33.7902C46.958 35.8634 48.6123 34.559 50.6707 33.3025C50.7087 33.2786 50.7439 33.2457 50.7819 33.2188C53.9061 30.9541 54.3997 26.1286 51.6877 23.3045C50.7927 22.3741 49.5696 21.8356 48.5337 21.0578C47.4597 20.247 46.5458 20.0526 45.4692 21.1924C44.8129 21.8835 43.8447 22.2305 42.9904 22.6732C39.736 24.3545 36.4708 26.0119 32.9426 27.8129L32.9426 27.8069ZM24.1205 27.8368C23.6948 27.5945 23.5049 27.4718 23.3042 27.3701C19.7488 25.5542 15.9656 24.1272 12.7167 21.7937C10.4088 20.1363 8.85486 20.7795 6.97818 21.9882C6.82359 22.0869 6.66359 22.1796 6.50901 22.2813C2.77734 24.7943 2.69869 30.622 6.36798 33.2427C7.00801 33.7004 7.74838 33.9966 8.36399 34.4902C9.5654 35.4535 10.6312 35.627 11.7458 34.3047C12.1228 33.859 12.7411 33.6436 13.2699 33.3713C16.8172 31.5524 20.3726 29.7455 24.1178 27.8338L24.1205 27.8368ZM11.6265 15.0177C14.8754 13.2765 18.0511 11.6401 21.1699 9.87803C22.5395 9.1032 22.9327 7.22146 22.2276 5.73761C21.5414 4.29265 20.0472 3.63449 18.6586 4.34351C16.9853 5.19613 15.3093 6.08763 13.7581 7.1736C11.2929 8.89977 10.4658 12.02 11.6265 15.0206L11.6265 15.0177ZM45.5885 40.6889C42.3016 42.6813 39.0987 44.566 35.9556 46.5674C34.8382 47.2794 34.5833 48.9218 35.1745 50.1245C35.8173 51.4348 37.1271 51.9793 38.3963 51.3211C40.0208 50.4775 41.6426 49.6039 43.1802 48.5868C45.6427 46.9563 46.5675 43.9767 45.5885 40.6889ZM45.5722 14.8232C46.5621 11.8944 45.7702 8.87284 43.484 7.26634C41.9355 6.17738 40.2676 5.2769 38.6024 4.40334C37.3739 3.76014 35.8498 4.43625 35.2586 5.72565C34.6321 7.09282 34.9684 8.73523 36.2322 9.48912C39.313 11.326 42.4453 13.0492 45.5695 14.8232L45.5722 14.8232ZM11.4828 40.8594C10.4956 43.9079 11.4773 46.9713 13.9723 48.6257C15.4748 49.6219 17.0613 50.4745 18.6451 51.3062C19.9441 51.9883 21.3733 51.4079 21.9835 50.0706C22.5774 48.7782 22.1977 47.2196 20.9584 46.4657C17.8477 44.572 14.6992 42.7561 11.48 40.8564L11.4828 40.8594Z" fill="#35EC6F"/>
</svg>
