<svg width="69" height="51" viewBox="0 0 69 51" fill="none" xmlns="http://www.w3.org/2000/svg">
<path d="M56.6419 24.8801C56.6188 18.0475 54.5545 15.511 48.7395 15.1797C44.4681 14.934 42.8969 13.1631 42.6711 8.61566C42.2426 0.0864156 46.2928 -0.536281 50.9651 0.252088C52.8635 0.572006 54.1306 2.18302 54.5223 4.56527C54.7527 5.95348 54.8264 7.39311 54.8863 8.8156C55.1167 14.3399 57.0888 16.8992 61.5676 17.3905C62.1021 17.4477 62.6412 17.482 63.1757 17.5219C67.3135 17.8304 69.0137 20.0356 68.9999 25.0743C68.9861 30.2444 67.1983 32.5124 62.9591 32.7409C56.7202 33.0779 55.2227 34.9289 54.8679 42.7212C54.5684 49.3309 49.2187 52.7415 44.7722 48.9367C43.7401 48.0513 43.2148 46.0403 42.7448 44.4236C42.4223 43.3096 42.6665 41.9671 42.5467 40.7446C42.0306 35.3974 39.9341 33.0094 35.6028 32.7637C34.7595 32.718 33.9071 32.718 33.0731 32.5752C30.3591 32.1239 28.8063 30.1073 28.5436 26.7596C28.5206 26.4739 28.5068 26.1883 28.5114 25.9026C28.774 16.0766 24.2262 14.3228 17.4666 15.551C16.6602 15.6996 15.7847 16.1166 15.1535 16.7393C11.8451 19.967 12.3058 24.4744 12.8311 28.8105C13.2643 32.3867 15.1442 34.2719 18.2176 34.8146C19.1254 34.9746 20.0561 34.9403 20.9731 35.0032C25.0003 35.266 26.6452 37.5397 26.5946 42.7555C26.5439 47.7199 24.8252 49.9708 20.9178 50.1993C16.4759 50.4563 14.5867 48.2855 14.3978 42.6983C14.1443 35.3117 12.3289 33.0322 6.44475 32.7066C1.11356 32.4153 -1.57738 26.7938 0.970717 20.8811C1.54208 19.5557 2.93363 18.6645 4.08097 17.8647C4.68919 17.442 5.5831 17.6191 6.34799 17.5619C12.3012 17.1278 14.0522 14.9626 14.3793 7.59877C14.642 1.8174 16.2501 -0.0735429 20.8348 0.0350007C24.5948 0.120693 26.1384 1.82311 26.5761 6.43907C26.6821 7.57021 26.6637 8.71849 26.7282 9.86105C26.9586 13.9571 28.8155 16.5165 32.0916 17.2363C32.6953 17.3677 33.3127 17.4134 33.9255 17.4591C39.4825 17.899 40.51 19.1101 40.8188 26.074C40.9708 29.4846 41.4362 32.7009 44.3345 34.0091C47.7765 35.5573 51.3337 35.8087 54.444 32.9408C56.5451 31.0042 56.711 27.9078 56.6465 24.8858L56.6419 24.8801Z" fill="#35EC6F"/>
</svg>
