<svg width="19" height="18" viewBox="0 0 19 18" fill="none" xmlns="http://www.w3.org/2000/svg">
<path fill-rule="evenodd" clip-rule="evenodd" d="M18.5 9C18.5 13.9705 14.4705 18 9.5 18C4.52943 18 0.5 13.9705 0.5 9C0.5 4.02943 4.52943 0 9.5 0C14.4705 0 18.5 4.02943 18.5 9ZM9.82247 6.6442C8.94713 7.0083 7.19759 7.76187 4.57391 8.90496C4.14786 9.07443 3.92468 9.24021 3.90437 9.40221C3.87003 9.67617 4.21303 9.78399 4.6801 9.93087C4.74364 9.95085 4.80946 9.97155 4.87694 9.99342C5.33647 10.1428 5.95461 10.3176 6.27596 10.3245C6.56745 10.3308 6.89279 10.2107 7.25197 9.96399C9.7034 8.30925 10.9688 7.47288 11.0482 7.45479C11.1042 7.4421 11.1819 7.42608 11.2346 7.47288C11.2872 7.51968 11.282 7.60824 11.2764 7.632C11.2425 7.7769 9.89609 9.02862 9.19931 9.67635C8.98214 9.87831 8.82806 10.0215 8.79656 10.0543C8.726 10.1275 8.65409 10.1968 8.58497 10.2634C8.1581 10.675 7.83788 10.9836 8.6027 11.4876C8.97026 11.7298 9.26429 11.93 9.55769 12.1298C9.87809 12.3481 10.1977 12.5657 10.6112 12.8368C10.7165 12.9058 10.8172 12.9776 10.9152 13.0474C11.288 13.3133 11.623 13.5521 12.0369 13.514C12.2774 13.4919 12.5258 13.2657 12.652 12.5913C12.9502 10.9974 13.5362 7.5438 13.6717 6.12073C13.6836 5.99605 13.6686 5.83648 13.6567 5.76644C13.6446 5.69639 13.6196 5.59658 13.5285 5.5227C13.4207 5.4352 13.2543 5.41675 13.1797 5.418C12.8413 5.42403 12.3219 5.60462 9.82247 6.6442Z" fill="#333343"/>
</svg>
