<svg width="19" height="18" viewBox="0 0 19 18" fill="none" xmlns="http://www.w3.org/2000/svg">
<path fill-rule="evenodd" clip-rule="evenodd" d="M9.49739 0C4.53585 0 0.5 4.03698 0.5 8.99992C0.5 10.9682 1.13474 12.7935 2.21375 14.2751L1.09235 17.6189L4.55167 16.5133C5.97447 17.4551 7.67241 18 9.50261 18C14.4642 18 18.5 13.9629 18.5 9.00008C18.5 4.03714 14.4642 0.000148773 9.50261 0.000148773L9.49739 0ZM6.98482 4.57156C6.81031 4.1536 6.67804 4.13778 6.41367 4.12703C6.32365 4.1218 6.22333 4.11658 6.11211 4.11658C5.76817 4.11658 5.40855 4.21707 5.19164 4.43927C4.92726 4.7091 4.27131 5.33864 4.27131 6.6297C4.27131 7.92076 5.21284 9.1694 5.33973 9.34411C5.47199 9.51852 7.17529 12.2064 9.81998 13.3018C11.8881 14.1589 12.5018 14.0795 12.9725 13.979C13.6601 13.8309 14.5224 13.3227 14.7393 12.7091C14.9562 12.0953 14.9562 11.5714 14.8926 11.4603C14.8291 11.3492 14.6545 11.2859 14.3901 11.1535C14.1257 11.0212 12.8403 10.3862 12.5969 10.3016C12.3588 10.2117 12.1315 10.2435 11.9517 10.4975C11.6978 10.852 11.4493 11.2119 11.2482 11.4287C11.0895 11.598 10.8302 11.6192 10.6134 11.5292C10.3225 11.4076 9.50799 11.1217 8.50288 10.2275C7.72526 9.5345 7.19636 8.67216 7.04305 8.41293C6.88958 8.14848 7.0272 7.99482 7.14872 7.85207C7.28098 7.68796 7.40789 7.57163 7.54015 7.41813C7.67242 7.26477 7.74647 7.18533 7.83111 7.0054C7.92113 6.83084 7.85752 6.6509 7.79407 6.5186C7.73063 6.3863 7.20172 5.09524 6.98482 4.57156Z" fill="#333343"/>
</svg>
