<svg width="34" height="34" viewBox="0 0 34 34" fill="none" xmlns="http://www.w3.org/2000/svg">
<path d="M17 34C26.3888 34 34 26.3888 34 17C34 7.61116 26.3888 0 17 0C7.61116 0 0 7.61116 0 17C0 19.7194 0.638551 22.2898 1.77389 24.5692C2.07559 25.175 2.17602 25.8674 2.0011 26.5211L0.988566 30.3053C1.02538 30.3053 0 33.1053 0 33.1053L7.47895 31.9989C8.13269 31.824 8.82506 31.9245 9.4308 32.2261C11.7102 33.3614 14.2806 34 17 34Z" fill="white"/>
<path d="M14 17C14 18.6568 15.3432 20 17 20C18.6568 20 20 18.6568 20 17C20 15.3432 18.6568 14 17 14C15.3432 14 14 15.3432 14 17Z" fill="#333343"/>
<path d="M6 17C6 18.6568 7.34315 20 9 20C10.6568 20 12 18.6568 12 17C12 15.3432 10.6568 14 9 14C7.34315 14 6 15.3432 6 17Z" fill="#333343"/>
<path d="M22 17C22 18.6568 23.3432 20 25 20C26.6568 20 28 18.6568 28 17C28 15.3432 26.6568 14 25 14C23.3432 14 22 15.3432 22 17Z" fill="#333343"/>
</svg>
